# xmcd
#
# Track frame offsets: 
#        150
#        12237
#        32567
#        43335
#        56500
#        65917
#        77004
#        90365
#        101390
#        111142
#
# Disc length: 1611 seconds
#
# Revision: 1
# Processed by: cddbd v1.4PL0 Copyright (c) Steve Scherf et al.
# Submitted via: ExactAudioCopy v0.95a1
#
DISCID=7806490a
DTITLE=Osborne Brothers - Greatest Bluegrass Hits Volume 1
DYEAR=1996
DGENRE=Bluegrass
TTITLE0=Rocky Top
TTITLE1=Bluegrass Concerto
TTITLE2=Poison Love (with Mac Wiseman)
TTITLE3=This Heart Of Mine Can Never Say Goodbye
TTITLE4=Georgia Pineywoods
TTITLE5=I Can Hear Kentucky Calling Me
TTITLE6=Mother Maybelle (with Mac Wiseman)
TTITLE7=Pain In My Heart
TTITLE8=Forked Deer
TTITLE9=Each Season Changes You
EXTD=
EXTT0=
EXTT1=
EXTT2=
EXTT3=
EXTT4=
EXTT5=
EXTT6=
EXTT7=
EXTT8=
EXTT9=
PLAYORDER=
